<svg width="1920" height="1080" viewBox="0 0 1920 1080" fill="none" xmlns="http://www.w3.org/2000/svg">
<circle id="bola" cx="622" cy="901" r="20" fill="#D9D9D9"/>
<circle id="bola_2" cx="672" cy="901" r="20" fill="#D9D9D9"/>
<circle id="bola_3" cx="722" cy="901" r="20" fill="#D9D9D9"/>
<circle id="bola_4" cx="772" cy="901" r="20" fill="#D9D9D9"/>
<circle id="bola_5" cx="822" cy="901" r="20" fill="#D9D9D9"/>
<circle id="bola_6" cx="872" cy="901" r="20" fill="#D9D9D9"/>
<circle id="bola_7" cx="922" cy="901" r="20" fill="#D9D9D9"/>
<circle id="bola_8" cx="972" cy="901" r="20" fill="#D9D9D9"/>
<circle id="bola_9" cx="1022" cy="901" r="20" fill="#D9D9D9"/>
<circle id="bola_10" cx="1072" cy="901" r="20" fill="#D9D9D9"/>
<circle id="bola_11" cx="1122" cy="901" r="20" fill="#D9D9D9"/>
<circle id="bola_12" cx="1172" cy="901" r="20" fill="#D9D9D9"/>
<circle id="bola_13" cx="1222" cy="901" r="20" fill="#D9D9D9"/>
<circle id="bola_14" cx="1272" cy="901" r="20" fill="#D9D9D9"/>
<circle id="bola_15" cx="1322" cy="901" r="20" fill="#D9D9D9"/>
<circle id="bola_16" cx="1372" cy="901" r="20" fill="#D9D9D9"/>
<circle id="bola_17" cx="1422" cy="901" r="20" fill="#D9D9D9"/>
<circle id="bola_18" cx="1472" cy="901" r="20" fill="#D9D9D9"/>
<circle id="bola_19" cx="1522" cy="901" r="20" fill="#D9D9D9"/>
<circle id="bola_20" cx="1572" cy="901" r="20" fill="#D9D9D9"/>
<circle id="bola_21" cx="622" cy="851" r="20" fill="#D9D9D9"/>
<circle id="bola_22" cx="672" cy="851" r="20" fill="#D9D9D9"/>
<circle id="bola_23" cx="722" cy="851" r="20" fill="#D9D9D9"/>
<circle id="bola_24" cx="772" cy="851" r="20" fill="#D9D9D9"/>
<circle id="bola_25" cx="822" cy="851" r="20" fill="#D9D9D9"/>
<circle id="bola_26" cx="872" cy="851" r="20" fill="#D9D9D9"/>
<circle id="bola_27" cx="922" cy="851" r="20" fill="#D9D9D9"/>
<circle id="bola_28" cx="972" cy="851" r="20" fill="#D9D9D9"/>
<circle id="bola_29" cx="1022" cy="851" r="20" fill="#D9D9D9"/>
<circle id="bola_30" cx="1072" cy="851" r="20" fill="#D9D9D9"/>
<circle id="bola_31" cx="1122" cy="851" r="20" fill="#D9D9D9"/>
<circle id="bola_32" cx="1172" cy="851" r="20" fill="#D9D9D9"/>
<circle id="bola_33" cx="1222" cy="851" r="20" fill="#D9D9D9"/>
<circle id="bola_34" cx="1272" cy="851" r="20" fill="#D9D9D9"/>
<circle id="bola_35" cx="1322" cy="851" r="20" fill="#D9D9D9"/>
<circle id="bola_36" cx="1372" cy="851" r="20" fill="#D9D9D9"/>
<circle id="bola_37" cx="1422" cy="851" r="20" fill="#D9D9D9"/>
<circle id="bola_38" cx="1472" cy="851" r="20" fill="#D9D9D9"/>
<circle id="bola_39" cx="1522" cy="851" r="20" fill="#D9D9D9"/>
<circle id="bola_40" cx="1572" cy="851" r="20" fill="#D9D9D9"/>
<circle id="bola_41" cx="622" cy="801" r="20" fill="#D9D9D9"/>
<circle id="bola_42" cx="672" cy="801" r="20" fill="#D9D9D9"/>
<circle id="bola_43" cx="722" cy="801" r="20" fill="#D9D9D9"/>
<circle id="bola_44" cx="772" cy="801" r="20" fill="#D9D9D9"/>
<circle id="bola_45" cx="822" cy="801" r="20" fill="#D9D9D9"/>
<circle id="bola_46" cx="872" cy="801" r="20" fill="#D9D9D9"/>
<circle id="bola_47" cx="922" cy="801" r="20" fill="#D9D9D9"/>
<circle id="bola_48" cx="972" cy="801" r="20" fill="#D9D9D9"/>
<circle id="bola_49" cx="1022" cy="801" r="20" fill="#D9D9D9"/>
<circle id="bola_50" cx="1072" cy="801" r="20" fill="#D9D9D9"/>
<circle id="bola_51" cx="1122" cy="801" r="20" fill="#D9D9D9"/>
<circle id="bola_52" cx="1172" cy="801" r="20" fill="#D9D9D9"/>
<circle id="bola_53" cx="1222" cy="801" r="20" fill="#D9D9D9"/>
<circle id="bola_54" cx="1272" cy="801" r="20" fill="#D9D9D9"/>
<circle id="bola_55" cx="1322" cy="801" r="20" fill="#D9D9D9"/>
<circle id="bola_56" cx="1372" cy="801" r="20" fill="#D9D9D9"/>
<circle id="bola_57" cx="1422" cy="801" r="20" fill="#D9D9D9"/>
<circle id="bola_58" cx="1472" cy="801" r="20" fill="#D9D9D9"/>
<circle id="bola_59" cx="1522" cy="801" r="20" fill="#D9D9D9"/>
<circle id="bola_60" cx="1572" cy="801" r="20" fill="#D9D9D9"/>
<circle id="bola_61" cx="622" cy="751" r="20" fill="#D9D9D9"/>
<circle id="bola_62" cx="672" cy="751" r="20" fill="#D9D9D9"/>
<circle id="bola_63" cx="722" cy="751" r="20" fill="#D9D9D9"/>
<circle id="bola_64" cx="772" cy="751" r="20" fill="#D9D9D9"/>
<circle id="bola_65" cx="822" cy="751" r="20" fill="#D9D9D9"/>
<circle id="bola_66" cx="872" cy="751" r="20" fill="#D9D9D9"/>
<circle id="bola_67" cx="922" cy="751" r="20" fill="#D9D9D9"/>
<circle id="bola_68" cx="972" cy="751" r="20" fill="#D9D9D9"/>
<circle id="bola_69" cx="1022" cy="751" r="20" fill="#D9D9D9"/>
<circle id="bola_70" cx="1072" cy="751" r="20" fill="#D9D9D9"/>
<circle id="bola_71" cx="1122" cy="751" r="20" fill="#D9D9D9"/>
<circle id="bola_72" cx="1172" cy="751" r="20" fill="#D9D9D9"/>
<circle id="bola_73" cx="1222" cy="751" r="20" fill="#D9D9D9"/>
<circle id="bola_74" cx="1272" cy="751" r="20" fill="#D9D9D9"/>
<circle id="bola_75" cx="1322" cy="751" r="20" fill="#D9D9D9"/>
<circle id="bola_76" cx="1372" cy="751" r="20" fill="#D9D9D9"/>
<circle id="bola_77" cx="1422" cy="751" r="20" fill="#D9D9D9"/>
<circle id="bola_78" cx="1472" cy="751" r="20" fill="#D9D9D9"/>
<circle id="bola_79" cx="1522" cy="751" r="20" fill="#D9D9D9"/>
<circle id="bola_80" cx="1572" cy="751" r="20" fill="#D9D9D9"/>
<circle id="bola_81" cx="622" cy="701" r="20" fill="#D9D9D9"/>
<circle id="bola_82" cx="672" cy="701" r="20" fill="#D9D9D9"/>
<circle id="bola_83" cx="722" cy="701" r="20" fill="#D9D9D9"/>
<circle id="bola_84" cx="772" cy="701" r="20" fill="#D9D9D9"/>
<circle id="bola_85" cx="822" cy="701" r="20" fill="#D9D9D9"/>
<circle id="bola_86" cx="872" cy="701" r="20" fill="#D9D9D9"/>
<circle id="bola_87" cx="922" cy="701" r="20" fill="#D9D9D9"/>
<circle id="bola_88" cx="972" cy="701" r="20" fill="#D9D9D9"/>
<circle id="bola_89" cx="1022" cy="701" r="20" fill="#D9D9D9"/>
<circle id="bola_90" cx="1072" cy="701" r="20" fill="#D9D9D9"/>
<circle id="bola_91" cx="1122" cy="701" r="20" fill="#D9D9D9"/>
<circle id="bola_92" cx="1172" cy="701" r="20" fill="#D9D9D9"/>
<circle id="bola_93" cx="1222" cy="701" r="20" fill="#D9D9D9"/>
<circle id="bola_94" cx="1272" cy="701" r="20" fill="#D9D9D9"/>
<circle id="bola_95" cx="1322" cy="701" r="20" fill="#D9D9D9"/>
<circle id="bola_96" cx="1372" cy="701" r="20" fill="#D9D9D9"/>
<circle id="bola_97" cx="1422" cy="701" r="20" fill="#D9D9D9"/>
<circle id="bola_98" cx="1472" cy="701" r="20" fill="#D9D9D9"/>
<circle id="bola_99" cx="1522" cy="701" r="20" fill="#D9D9D9"/>
<circle id="bola_100" cx="1572" cy="701" r="20" fill="#D9D9D9"/>
<circle id="bola_101" cx="622" cy="651" r="20" fill="#D9D9D9"/>
<circle id="bola_102" cx="672" cy="651" r="20" fill="#D9D9D9"/>
<circle id="bola_103" cx="722" cy="651" r="20" fill="#D9D9D9"/>
<circle id="bola_104" cx="772" cy="651" r="20" fill="#D9D9D9"/>
<circle id="bola_105" cx="822" cy="651" r="20" fill="#D9D9D9"/>
<circle id="bola_106" cx="872" cy="651" r="20" fill="#D9D9D9"/>
<circle id="bola_107" cx="922" cy="651" r="20" fill="#D9D9D9"/>
<circle id="bola_108" cx="972" cy="651" r="20" fill="#D9D9D9"/>
<circle id="bola_109" cx="1022" cy="651" r="20" fill="#D9D9D9"/>
<circle id="bola_110" cx="1072" cy="651" r="20" fill="#D9D9D9"/>
<circle id="bola_111" cx="1122" cy="651" r="20" fill="#D9D9D9"/>
<circle id="bola_112" cx="1172" cy="651" r="20" fill="#D9D9D9"/>
<circle id="bola_113" cx="1222" cy="651" r="20" fill="#D9D9D9"/>
<circle id="bola_114" cx="1272" cy="651" r="20" fill="#D9D9D9"/>
<circle id="bola_115" cx="1322" cy="651" r="20" fill="#D9D9D9"/>
<circle id="bola_116" cx="1372" cy="651" r="20" fill="#D9D9D9"/>
<circle id="bola_117" cx="1422" cy="651" r="20" fill="#D9D9D9"/>
<circle id="bola_118" cx="1472" cy="651" r="20" fill="#D9D9D9"/>
<circle id="bola_119" cx="1522" cy="651" r="20" fill="#D9D9D9"/>
<circle id="bola_120" cx="1572" cy="651" r="20" fill="#D9D9D9"/>
<circle id="bola_121" cx="622" cy="601" r="20" fill="#D9D9D9"/>
<circle id="bola_122" cx="672" cy="601" r="20" fill="#D9D9D9"/>
<circle id="bola_123" cx="722" cy="601" r="20" fill="#D9D9D9"/>
<circle id="bola_124" cx="772" cy="601" r="20" fill="#D9D9D9"/>
<circle id="bola_125" cx="822" cy="601" r="20" fill="#D9D9D9"/>
<circle id="bola_126" cx="872" cy="601" r="20" fill="#D9D9D9"/>
<circle id="bola_127" cx="922" cy="601" r="20" fill="#D9D9D9"/>
<circle id="bola_128" cx="972" cy="601" r="20" fill="#D9D9D9"/>
<circle id="bola_129" cx="1022" cy="601" r="20" fill="#D9D9D9"/>
<circle id="bola_130" cx="1072" cy="601" r="20" fill="#D9D9D9"/>
<circle id="bola_131" cx="1122" cy="601" r="20" fill="#D9D9D9"/>
<circle id="bola_132" cx="1172" cy="601" r="20" fill="#D9D9D9"/>
<circle id="bola_133" cx="1222" cy="601" r="20" fill="#D9D9D9"/>
<circle id="bola_134" cx="1272" cy="601" r="20" fill="#D9D9D9"/>
<circle id="bola_135" cx="1322" cy="601" r="20" fill="#D9D9D9"/>
<circle id="bola_136" cx="1372" cy="601" r="20" fill="#D9D9D9"/>
<circle id="bola_137" cx="1422" cy="601" r="20" fill="#D9D9D9"/>
<circle id="bola_138" cx="1472" cy="601" r="20" fill="#D9D9D9"/>
<circle id="bola_139" cx="1522" cy="601" r="20" fill="#D9D9D9"/>
<circle id="bola_140" cx="1572" cy="601" r="20" fill="#D9D9D9"/>
<circle id="bola_141" cx="622" cy="551" r="20" fill="#D9D9D9"/>
<circle id="bola_142" cx="672" cy="551" r="20" fill="#D9D9D9"/>
<circle id="bola_143" cx="722" cy="551" r="20" fill="#D9D9D9"/>
<circle id="bola_144" cx="772" cy="551" r="20" fill="#D9D9D9"/>
<circle id="bola_145" cx="822" cy="551" r="20" fill="#D9D9D9"/>
<circle id="bola_146" cx="872" cy="551" r="20" fill="#D9D9D9"/>
<circle id="bola_147" cx="922" cy="551" r="20" fill="#D9D9D9"/>
<circle id="bola_148" cx="972" cy="551" r="20" fill="#D9D9D9"/>
<circle id="bola_149" cx="1022" cy="551" r="20" fill="#D9D9D9"/>
<circle id="bola_150" cx="1072" cy="551" r="20" fill="#D9D9D9"/>
<circle id="bola_151" cx="1122" cy="551" r="20" fill="#D9D9D9"/>
<circle id="bola_152" cx="1172" cy="551" r="20" fill="#D9D9D9"/>
<circle id="bola_153" cx="1222" cy="551" r="20" fill="#D9D9D9"/>
<circle id="bola_154" cx="1272" cy="551" r="20" fill="#D9D9D9"/>
<circle id="bola_155" cx="1322" cy="551" r="20" fill="#D9D9D9"/>
<circle id="bola_156" cx="1372" cy="551" r="20" fill="#D9D9D9"/>
<circle id="bola_157" cx="1422" cy="551" r="20" fill="#D9D9D9"/>
<circle id="bola_158" cx="1472" cy="551" r="20" fill="#D9D9D9"/>
<circle id="bola_159" cx="1522" cy="551" r="20" fill="#D9D9D9"/>
<circle id="bola_160" cx="1572" cy="551" r="20" fill="#D9D9D9"/>
<circle id="bola_161" cx="622" cy="501" r="20" fill="#D9D9D9"/>
<circle id="bola_162" cx="672" cy="501" r="20" fill="#D9D9D9"/>
<circle id="bola_163" cx="722" cy="501" r="20" fill="#D9D9D9"/>
<circle id="bola_164" cx="772" cy="501" r="20" fill="#D9D9D9"/>
<circle id="bola_165" cx="822" cy="501" r="20" fill="#D9D9D9"/>
<circle id="bola_166" cx="872" cy="501" r="20" fill="#D9D9D9"/>
<circle id="bola_167" cx="922" cy="501" r="20" fill="#D9D9D9"/>
<circle id="bola_168" cx="972" cy="501" r="20" fill="#D9D9D9"/>
<circle id="bola_169" cx="1022" cy="501" r="20" fill="#D9D9D9"/>
<circle id="bola_170" cx="1072" cy="501" r="20" fill="#D9D9D9"/>
<circle id="bola_171" cx="1122" cy="501" r="20" fill="#D9D9D9"/>
<circle id="bola_172" cx="1172" cy="501" r="20" fill="#D9D9D9"/>
<circle id="bola_173" cx="1222" cy="501" r="20" fill="#D9D9D9"/>
<circle id="bola_174" cx="1272" cy="501" r="20" fill="#D9D9D9"/>
<circle id="bola_175" cx="1322" cy="501" r="20" fill="#D9D9D9"/>
<circle id="bola_176" cx="1372" cy="501" r="20" fill="#D9D9D9"/>
<circle id="bola_177" cx="1422" cy="501" r="20" fill="#D9D9D9"/>
<circle id="bola_178" cx="1472" cy="501" r="20" fill="#D9D9D9"/>
<circle id="bola_179" cx="1522" cy="501" r="20" fill="#D9D9D9"/>
<circle id="bola_180" cx="1572" cy="501" r="20" fill="#D9D9D9"/>
<circle id="bola_181" cx="622" cy="451" r="20" fill="#D9D9D9"/>
<circle id="bola_182" cx="672" cy="451" r="20" fill="#D9D9D9"/>
<circle id="bola_183" cx="722" cy="451" r="20" fill="#D9D9D9"/>
<circle id="bola_184" cx="772" cy="451" r="20" fill="#D9D9D9"/>
<circle id="bola_185" cx="822" cy="451" r="20" fill="#D9D9D9"/>
<circle id="bola_186" cx="872" cy="451" r="20" fill="#D9D9D9"/>
<circle id="bola_187" cx="922" cy="451" r="20" fill="#D9D9D9"/>
<circle id="bola_188" cx="972" cy="451" r="20" fill="#D9D9D9"/>
<circle id="bola_189" cx="1022" cy="451" r="20" fill="#D9D9D9"/>
<circle id="bola_190" cx="1072" cy="451" r="20" fill="#D9D9D9"/>
<circle id="bola_191" cx="1122" cy="451" r="20" fill="#D9D9D9"/>
<circle id="bola_192" cx="1172" cy="451" r="20" fill="#D9D9D9"/>
<circle id="bola_193" cx="1222" cy="451" r="20" fill="#D9D9D9"/>
<circle id="bola_194" cx="1272" cy="451" r="20" fill="#D9D9D9"/>
<circle id="bola_195" cx="1322" cy="451" r="20" fill="#D9D9D9"/>
<circle id="bola_196" cx="1372" cy="451" r="20" fill="#D9D9D9"/>
<circle id="bola_197" cx="1422" cy="451" r="20" fill="#D9D9D9"/>
<circle id="bola_198" cx="1472" cy="451" r="20" fill="#D9D9D9"/>
<circle id="bola_199" cx="1522" cy="451" r="20" fill="#D9D9D9"/>
<circle id="bola_200" cx="1572" cy="451" r="20" fill="#D9D9D9"/>
<circle id="bola_201" cx="622" cy="401" r="20" fill="#D9D9D9"/>
<circle id="bola_202" cx="672" cy="401" r="20" fill="#D9D9D9"/>
<circle id="bola_203" cx="722" cy="401" r="20" fill="#D9D9D9"/>
<circle id="bola_204" cx="772" cy="401" r="20" fill="#D9D9D9"/>
<circle id="bola_205" cx="822" cy="401" r="20" fill="#D9D9D9"/>
<circle id="bola_206" cx="872" cy="401" r="20" fill="#D9D9D9"/>
<circle id="bola_207" cx="922" cy="401" r="20" fill="#D9D9D9"/>
<circle id="bola_208" cx="972" cy="401" r="20" fill="#D9D9D9"/>
<circle id="bola_209" cx="1022" cy="401" r="20" fill="#D9D9D9"/>
<circle id="bola_210" cx="1072" cy="401" r="20" fill="#D9D9D9"/>
<circle id="bola_211" cx="1122" cy="401" r="20" fill="#D9D9D9"/>
<circle id="bola_212" cx="1172" cy="401" r="20" fill="#D9D9D9"/>
<circle id="bola_213" cx="1222" cy="401" r="20" fill="#D9D9D9"/>
<circle id="bola_214" cx="1272" cy="401" r="20" fill="#D9D9D9"/>
<circle id="bola_215" cx="1322" cy="401" r="20" fill="#D9D9D9"/>
<circle id="bola_216" cx="1372" cy="401" r="20" fill="#D9D9D9"/>
<circle id="bola_217" cx="1422" cy="401" r="20" fill="#D9D9D9"/>
<circle id="bola_218" cx="1472" cy="401" r="20" fill="#D9D9D9"/>
<circle id="bola_219" cx="1522" cy="401" r="20" fill="#D9D9D9"/>
<circle id="bola_220" cx="1572" cy="401" r="20" fill="#D9D9D9"/>
<circle id="bola_221" cx="622" cy="351" r="20" fill="#D9D9D9"/>
<circle id="bola_222" cx="672" cy="351" r="20" fill="#D9D9D9"/>
<circle id="bola_223" cx="722" cy="351" r="20" fill="#D9D9D9"/>
<circle id="bola_224" cx="772" cy="351" r="20" fill="#D9D9D9"/>
<circle id="bola_225" cx="822" cy="351" r="20" fill="#D9D9D9"/>
<circle id="bola_226" cx="872" cy="351" r="20" fill="#D9D9D9"/>
<circle id="bola_227" cx="922" cy="351" r="20" fill="#D9D9D9"/>
<circle id="bola_228" cx="972" cy="351" r="20" fill="#D9D9D9"/>
<circle id="bola_229" cx="1022" cy="351" r="20" fill="#D9D9D9"/>
<circle id="bola_230" cx="1072" cy="351" r="20" fill="#D9D9D9"/>
<circle id="bola_231" cx="1122" cy="351" r="20" fill="#D9D9D9"/>
<circle id="bola_232" cx="1172" cy="351" r="20" fill="#D9D9D9"/>
<circle id="bola_233" cx="1222" cy="351" r="20" fill="#D9D9D9"/>
<circle id="bola_234" cx="1272" cy="351" r="20" fill="#D9D9D9"/>
<circle id="bola_235" cx="1322" cy="351" r="20" fill="#D9D9D9"/>
<circle id="bola_236" cx="1372" cy="352" r="20" fill="#D9D9D9"/>
<circle id="bola_237" cx="1422" cy="351" r="20" fill="#D9D9D9"/>
<circle id="bola_238" cx="1472" cy="351" r="20" fill="#D9D9D9"/>
<circle id="bola_239" cx="1522" cy="351" r="20" fill="#D9D9D9"/>
<circle id="bola_240" cx="1572" cy="351" r="20" fill="#D9D9D9"/>
</svg>
