<svg width="990" height="590" viewBox="0 0 990 590" fill="none" xmlns="http://www.w3.org/2000/svg">
<g id="positions">
<circle id="bola" cx="20" cy="170" r="20" fill="#D9D9D9"/>
<circle id="bola_2" cx="70" cy="170" r="20" fill="#D9D9D9"/>
<circle id="bola_3" cx="120" cy="170" r="20" fill="#D9D9D9"/>
<circle id="bola_4" cx="170" cy="170" r="20" fill="#D9D9D9"/>
<circle id="bola_5" cx="220" cy="170" r="20" fill="#D9D9D9"/>
<circle id="bola_6" cx="270" cy="170" r="20" fill="#D9D9D9"/>
<circle id="bola_7" cx="320" cy="170" r="20" fill="#D9D9D9"/>
<circle id="bola_8" cx="370" cy="170" r="20" fill="#D9D9D9"/>
<circle id="bola_9" cx="420" cy="170" r="20" fill="#D9D9D9"/>
<circle id="bola_10" cx="470" cy="170" r="20" fill="#D9D9D9"/>
<circle id="bola_11" cx="520" cy="170" r="20" fill="#D9D9D9"/>
<circle id="bola_12" cx="570" cy="170" r="20" fill="#D9D9D9"/>
<circle id="bola_13" cx="620" cy="170" r="20" fill="#D9D9D9"/>
<circle id="bola_14" cx="670" cy="170" r="20" fill="#D9D9D9"/>
<circle id="bola_15" cx="720" cy="170" r="20" fill="#D9D9D9"/>
<circle id="bola_16" cx="770" cy="170" r="20" fill="#D9D9D9"/>
<circle id="bola_17" cx="820" cy="170" r="20" fill="#D9D9D9"/>
<circle id="bola_18" cx="870" cy="170" r="20" fill="#D9D9D9"/>
<circle id="bola_19" cx="920" cy="170" r="20" fill="#D9D9D9"/>
<circle id="bola_20" cx="970" cy="170" r="20" fill="#D9D9D9"/>
<circle id="bola_21" cx="20" cy="220" r="20" fill="#D9D9D9"/>
<circle id="bola_22" cx="70" cy="220" r="20" fill="#D9D9D9"/>
<circle id="bola_23" cx="120" cy="220" r="20" fill="#D9D9D9"/>
<circle id="bola_24" cx="170" cy="220" r="20" fill="#D9D9D9"/>
<circle id="bola_25" cx="220" cy="220" r="20" fill="#D9D9D9"/>
<circle id="bola_26" cx="270" cy="220" r="20" fill="#D9D9D9"/>
<circle id="bola_27" cx="320" cy="220" r="20" fill="#D9D9D9"/>
<circle id="bola_28" cx="370" cy="220" r="20" fill="#D9D9D9"/>
<circle id="bola_29" cx="420" cy="220" r="20" fill="#D9D9D9"/>
<circle id="bola_30" cx="470" cy="220" r="20" fill="#D9D9D9"/>
<circle id="bola_31" cx="520" cy="220" r="20" fill="#D9D9D9"/>
<circle id="bola_32" cx="570" cy="220" r="20" fill="#D9D9D9"/>
<circle id="bola_33" cx="620" cy="220" r="20" fill="#D9D9D9"/>
<circle id="bola_34" cx="670" cy="220" r="20" fill="#D9D9D9"/>
<circle id="bola_35" cx="720" cy="220" r="20" fill="#D9D9D9"/>
<circle id="bola_36" cx="770" cy="220" r="20" fill="#D9D9D9"/>
<circle id="bola_37" cx="820" cy="220" r="20" fill="#D9D9D9"/>
<circle id="bola_38" cx="870" cy="220" r="20" fill="#D9D9D9"/>
<circle id="bola_39" cx="920" cy="220" r="20" fill="#D9D9D9"/>
<circle id="bola_40" cx="970" cy="220" r="20" fill="#D9D9D9"/>
<circle id="bola_41" cx="20" cy="270" r="20" fill="#D9D9D9"/>
<circle id="bola_42" cx="70" cy="270" r="20" fill="#D9D9D9"/>
<circle id="bola_43" cx="120" cy="270" r="20" fill="#D9D9D9"/>
<circle id="bola_44" cx="170" cy="270" r="20" fill="#D9D9D9"/>
<circle id="bola_45" cx="220" cy="270" r="20" fill="#D9D9D9"/>
<circle id="bola_46" cx="270" cy="270" r="20" fill="#D9D9D9"/>
<circle id="bola_47" cx="320" cy="270" r="20" fill="#D9D9D9"/>
<circle id="bola_48" cx="370" cy="270" r="20" fill="#D9D9D9"/>
<circle id="bola_49" cx="420" cy="270" r="20" fill="#D9D9D9"/>
<circle id="bola_50" cx="470" cy="270" r="20" fill="#D9D9D9"/>
<circle id="bola_51" cx="520" cy="270" r="20" fill="#D9D9D9"/>
<circle id="bola_52" cx="570" cy="270" r="20" fill="#D9D9D9"/>
<circle id="bola_53" cx="620" cy="270" r="20" fill="#D9D9D9"/>
<circle id="bola_54" cx="670" cy="270" r="20" fill="#D9D9D9"/>
<circle id="bola_55" cx="720" cy="270" r="20" fill="#D9D9D9"/>
<circle id="bola_56" cx="770" cy="270" r="20" fill="#D9D9D9"/>
<circle id="bola_57" cx="820" cy="270" r="20" fill="#D9D9D9"/>
<circle id="bola_58" cx="870" cy="270" r="20" fill="#D9D9D9"/>
<circle id="bola_59" cx="920" cy="270" r="20" fill="#D9D9D9"/>
<circle id="bola_60" cx="970" cy="270" r="20" fill="#D9D9D9"/>
<circle id="bola_61" cx="20" cy="320" r="20" fill="#D9D9D9"/>
<circle id="bola_62" cx="70" cy="320" r="20" fill="#D9D9D9"/>
<circle id="bola_63" cx="120" cy="320" r="20" fill="#D9D9D9"/>
<circle id="bola_64" cx="170" cy="320" r="20" fill="#D9D9D9"/>
<circle id="bola_65" cx="220" cy="320" r="20" fill="#D9D9D9"/>
<circle id="bola_66" cx="270" cy="320" r="20" fill="#D9D9D9"/>
<circle id="bola_67" cx="320" cy="320" r="20" fill="#D9D9D9"/>
<circle id="bola_68" cx="370" cy="320" r="20" fill="#D9D9D9"/>
<circle id="bola_69" cx="420" cy="320" r="20" fill="#D9D9D9"/>
<circle id="bola_70" cx="470" cy="320" r="20" fill="#D9D9D9"/>
<circle id="bola_71" cx="520" cy="320" r="20" fill="#D9D9D9"/>
<circle id="bola_72" cx="570" cy="320" r="20" fill="#D9D9D9"/>
<circle id="bola_73" cx="620" cy="320" r="20" fill="#D9D9D9"/>
<circle id="bola_74" cx="670" cy="320" r="20" fill="#D9D9D9"/>
<circle id="bola_75" cx="720" cy="320" r="20" fill="#D9D9D9"/>
<circle id="bola_76" cx="770" cy="320" r="20" fill="#D9D9D9"/>
<circle id="bola_77" cx="820" cy="320" r="20" fill="#D9D9D9"/>
<circle id="bola_78" cx="870" cy="320" r="20" fill="#D9D9D9"/>
<circle id="bola_79" cx="920" cy="320" r="20" fill="#D9D9D9"/>
<circle id="bola_80" cx="970" cy="320" r="20" fill="#D9D9D9"/>
<circle id="bola_81" cx="20" cy="370" r="20" fill="#D9D9D9"/>
<circle id="bola_82" cx="70" cy="370" r="20" fill="#D9D9D9"/>
<circle id="bola_83" cx="120" cy="370" r="20" fill="#D9D9D9"/>
<circle id="bola_84" cx="170" cy="370" r="20" fill="#D9D9D9"/>
<circle id="bola_85" cx="220" cy="370" r="20" fill="#D9D9D9"/>
<circle id="bola_86" cx="270" cy="370" r="20" fill="#D9D9D9"/>
<circle id="bola_87" cx="320" cy="370" r="20" fill="#D9D9D9"/>
<circle id="bola_88" cx="370" cy="370" r="20" fill="#D9D9D9"/>
<circle id="bola_89" cx="420" cy="370" r="20" fill="#D9D9D9"/>
<circle id="bola_90" cx="470" cy="370" r="20" fill="#D9D9D9"/>
<circle id="bola_91" cx="520" cy="370" r="20" fill="#D9D9D9"/>
<circle id="bola_92" cx="570" cy="370" r="20" fill="#D9D9D9"/>
<circle id="bola_93" cx="620" cy="370" r="20" fill="#D9D9D9"/>
<circle id="bola_94" cx="670" cy="370" r="20" fill="#D9D9D9"/>
<circle id="bola_95" cx="720" cy="370" r="20" fill="#D9D9D9"/>
<circle id="bola_96" cx="770" cy="370" r="20" fill="#D9D9D9"/>
<circle id="bola_97" cx="820" cy="370" r="20" fill="#D9D9D9"/>
<circle id="bola_98" cx="870" cy="370" r="20" fill="#D9D9D9"/>
<circle id="bola_99" cx="920" cy="370" r="20" fill="#D9D9D9"/>
<circle id="bola_100" cx="970" cy="370" r="20" fill="#D9D9D9"/>
<circle id="bola_101" cx="20" cy="420" r="20" fill="#D9D9D9"/>
<circle id="bola_102" cx="70" cy="420" r="20" fill="#D9D9D9"/>
<circle id="bola_103" cx="120" cy="420" r="20" fill="#D9D9D9"/>
<circle id="bola_104" cx="170" cy="420" r="20" fill="#D9D9D9"/>
<circle id="bola_105" cx="220" cy="420" r="20" fill="#D9D9D9"/>
<circle id="bola_106" cx="270" cy="420" r="20" fill="#D9D9D9"/>
<circle id="bola_107" cx="320" cy="420" r="20" fill="#D9D9D9"/>
<circle id="bola_108" cx="370" cy="420" r="20" fill="#D9D9D9"/>
<circle id="bola_109" cx="420" cy="420" r="20" fill="#D9D9D9"/>
<circle id="bola_110" cx="470" cy="420" r="20" fill="#D9D9D9"/>
<circle id="bola_111" cx="520" cy="420" r="20" fill="#D9D9D9"/>
<circle id="bola_112" cx="570" cy="420" r="20" fill="#D9D9D9"/>
<circle id="bola_113" cx="620" cy="420" r="20" fill="#D9D9D9"/>
<circle id="bola_114" cx="670" cy="420" r="20" fill="#D9D9D9"/>
<circle id="bola_115" cx="720" cy="420" r="20" fill="#D9D9D9"/>
<circle id="bola_116" cx="770" cy="420" r="20" fill="#D9D9D9"/>
<circle id="bola_117" cx="820" cy="420" r="20" fill="#D9D9D9"/>
<circle id="bola_118" cx="870" cy="420" r="20" fill="#D9D9D9"/>
<circle id="bola_119" cx="920" cy="420" r="20" fill="#D9D9D9"/>
<circle id="bola_120" cx="970" cy="420" r="20" fill="#D9D9D9"/>
<circle id="bola_121" cx="20" cy="470" r="20" fill="#D9D9D9"/>
<circle id="bola_122" cx="70" cy="470" r="20" fill="#D9D9D9"/>
<circle id="bola_123" cx="120" cy="470" r="20" fill="#D9D9D9"/>
<circle id="bola_124" cx="170" cy="470" r="20" fill="#D9D9D9"/>
<circle id="bola_125" cx="220" cy="470" r="20" fill="#D9D9D9"/>
<circle id="bola_126" cx="270" cy="470" r="20" fill="#D9D9D9"/>
<circle id="bola_127" cx="320" cy="470" r="20" fill="#D9D9D9"/>
<circle id="bola_128" cx="370" cy="470" r="20" fill="#D9D9D9"/>
<circle id="bola_129" cx="420" cy="470" r="20" fill="#D9D9D9"/>
<circle id="bola_130" cx="470" cy="470" r="20" fill="#D9D9D9"/>
<circle id="bola_131" cx="520" cy="470" r="20" fill="#D9D9D9"/>
<circle id="bola_132" cx="570" cy="470" r="20" fill="#D9D9D9"/>
<circle id="bola_133" cx="620" cy="470" r="20" fill="#D9D9D9"/>
<circle id="bola_134" cx="670" cy="470" r="20" fill="#D9D9D9"/>
<circle id="bola_135" cx="720" cy="470" r="20" fill="#D9D9D9"/>
<circle id="bola_136" cx="770" cy="470" r="20" fill="#D9D9D9"/>
<circle id="bola_137" cx="820" cy="470" r="20" fill="#D9D9D9"/>
<circle id="bola_138" cx="870" cy="470" r="20" fill="#D9D9D9"/>
<circle id="bola_139" cx="920" cy="470" r="20" fill="#D9D9D9"/>
<circle id="bola_140" cx="970" cy="470" r="20" fill="#D9D9D9"/>
<circle id="bola_141" cx="20" cy="520" r="20" fill="#D9D9D9"/>
<circle id="bola_142" cx="70" cy="520" r="20" fill="#D9D9D9"/>
<circle id="bola_143" cx="120" cy="520" r="20" fill="#D9D9D9"/>
<circle id="bola_144" cx="170" cy="520" r="20" fill="#D9D9D9"/>
<circle id="bola_145" cx="220" cy="520" r="20" fill="#D9D9D9"/>
<circle id="bola_146" cx="270" cy="520" r="20" fill="#D9D9D9"/>
<circle id="bola_147" cx="320" cy="520" r="20" fill="#D9D9D9"/>
<circle id="bola_148" cx="370" cy="520" r="20" fill="#D9D9D9"/>
<circle id="bola_149" cx="420" cy="520" r="20" fill="#D9D9D9"/>
<circle id="bola_150" cx="470" cy="520" r="20" fill="#D9D9D9"/>
<circle id="bola_151" cx="520" cy="520" r="20" fill="#D9D9D9"/>
<circle id="bola_152" cx="570" cy="520" r="20" fill="#D9D9D9"/>
<circle id="bola_153" cx="620" cy="520" r="20" fill="#D9D9D9"/>
<circle id="bola_154" cx="670" cy="520" r="20" fill="#D9D9D9"/>
<circle id="bola_155" cx="720" cy="520" r="20" fill="#D9D9D9"/>
<circle id="bola_156" cx="770" cy="520" r="20" fill="#D9D9D9"/>
<circle id="bola_157" cx="820" cy="520" r="20" fill="#D9D9D9"/>
<circle id="bola_158" cx="870" cy="520" r="20" fill="#D9D9D9"/>
<circle id="bola_159" cx="920" cy="520" r="20" fill="#D9D9D9"/>
<circle id="bola_160" cx="970" cy="520" r="20" fill="#D9D9D9"/>
<circle id="bola_161" cx="20" cy="570" r="20" fill="#D9D9D9"/>
<circle id="bola_162" cx="70" cy="570" r="20" fill="#D9D9D9"/>
<circle id="bola_163" cx="120" cy="570" r="20" fill="#D9D9D9"/>
<circle id="bola_164" cx="170" cy="570" r="20" fill="#D9D9D9"/>
<circle id="bola_165" cx="220" cy="570" r="20" fill="#D9D9D9"/>
<circle id="bola_166" cx="270" cy="570" r="20" fill="#D9D9D9"/>
<circle id="bola_167" cx="320" cy="570" r="20" fill="#D9D9D9"/>
<circle id="bola_168" cx="370" cy="570" r="20" fill="#D9D9D9"/>
<circle id="bola_169" cx="420" cy="570" r="20" fill="#D9D9D9"/>
<circle id="bola_170" cx="470" cy="570" r="20" fill="#D9D9D9"/>
<circle id="bola_171" cx="520" cy="570" r="20" fill="#D9D9D9"/>
<circle id="bola_172" cx="570" cy="570" r="20" fill="#D9D9D9"/>
<circle id="bola_173" cx="620" cy="570" r="20" fill="#D9D9D9"/>
<circle id="bola_174" cx="670" cy="570" r="20" fill="#D9D9D9"/>
<circle id="bola_175" cx="720" cy="570" r="20" fill="#D9D9D9"/>
<circle id="bola_176" cx="770" cy="570" r="20" fill="#D9D9D9"/>
<circle id="bola_177" cx="820" cy="570" r="20" fill="#D9D9D9"/>
<circle id="bola_178" cx="870" cy="570" r="20" fill="#D9D9D9"/>
<circle id="bola_179" cx="920" cy="570" r="20" fill="#D9D9D9"/>
<circle id="bola_180" cx="970" cy="570" r="20" fill="#D9D9D9"/>
<circle id="bola_181" cx="20" cy="70" r="20" fill="#D9D9D9"/>
<circle id="bola_182" cx="70" cy="70" r="20" fill="#D9D9D9"/>
<circle id="bola_183" cx="120" cy="70" r="20" fill="#D9D9D9"/>
<circle id="bola_184" cx="170" cy="70" r="20" fill="#D9D9D9"/>
<circle id="bola_185" cx="220" cy="70" r="20" fill="#D9D9D9"/>
<circle id="bola_186" cx="270" cy="70" r="20" fill="#D9D9D9"/>
<circle id="bola_187" cx="320" cy="70" r="20" fill="#D9D9D9"/>
<circle id="bola_188" cx="370" cy="70" r="20" fill="#D9D9D9"/>
<circle id="bola_189" cx="420" cy="70" r="20" fill="#D9D9D9"/>
<circle id="bola_190" cx="470" cy="70" r="20" fill="#D9D9D9"/>
<circle id="bola_191" cx="520" cy="70" r="20" fill="#D9D9D9"/>
<circle id="bola_192" cx="570" cy="70" r="20" fill="#D9D9D9"/>
<circle id="bola_193" cx="620" cy="70" r="20" fill="#D9D9D9"/>
<circle id="bola_194" cx="670" cy="70" r="20" fill="#D9D9D9"/>
<circle id="bola_195" cx="720" cy="70" r="20" fill="#D9D9D9"/>
<circle id="bola_196" cx="770" cy="70" r="20" fill="#D9D9D9"/>
<circle id="bola_197" cx="820" cy="70" r="20" fill="#D9D9D9"/>
<circle id="bola_198" cx="870" cy="70" r="20" fill="#D9D9D9"/>
<circle id="bola_199" cx="920" cy="70" r="20" fill="#D9D9D9"/>
<circle id="bola_200" cx="970" cy="70" r="20" fill="#D9D9D9"/>
<circle id="bola_201" cx="20" cy="120" r="20" fill="#D9D9D9"/>
<circle id="bola_202" cx="70" cy="120" r="20" fill="#D9D9D9"/>
<circle id="bola_203" cx="120" cy="120" r="20" fill="#D9D9D9"/>
<circle id="bola_204" cx="170" cy="120" r="20" fill="#D9D9D9"/>
<circle id="bola_205" cx="220" cy="120" r="20" fill="#D9D9D9"/>
<circle id="bola_206" cx="270" cy="120" r="20" fill="#D9D9D9"/>
<circle id="bola_207" cx="320" cy="120" r="20" fill="#D9D9D9"/>
<circle id="bola_208" cx="370" cy="120" r="20" fill="#D9D9D9"/>
<circle id="bola_209" cx="420" cy="120" r="20" fill="#D9D9D9"/>
<circle id="bola_210" cx="470" cy="120" r="20" fill="#D9D9D9"/>
<circle id="bola_211" cx="520" cy="120" r="20" fill="#D9D9D9"/>
<circle id="bola_212" cx="570" cy="120" r="20" fill="#D9D9D9"/>
<circle id="bola_213" cx="620" cy="120" r="20" fill="#D9D9D9"/>
<circle id="bola_214" cx="670" cy="120" r="20" fill="#D9D9D9"/>
<circle id="bola_215" cx="720" cy="120" r="20" fill="#D9D9D9"/>
<circle id="bola_216" cx="770" cy="120" r="20" fill="#D9D9D9"/>
<circle id="bola_217" cx="820" cy="120" r="20" fill="#D9D9D9"/>
<circle id="bola_218" cx="870" cy="120" r="20" fill="#D9D9D9"/>
<circle id="bola_219" cx="920" cy="120" r="20" fill="#D9D9D9"/>
<circle id="bola_220" cx="970" cy="120" r="20" fill="#D9D9D9"/>
<circle id="bola_221" cx="20" cy="20" r="20" fill="#D9D9D9"/>
<circle id="bola_222" cx="70" cy="20" r="20" fill="#D9D9D9"/>
<circle id="bola_223" cx="120" cy="20" r="20" fill="#D9D9D9"/>
<circle id="bola_224" cx="170" cy="20" r="20" fill="#D9D9D9"/>
<circle id="bola_225" cx="220" cy="20" r="20" fill="#D9D9D9"/>
<circle id="bola_226" cx="270" cy="20" r="20" fill="#D9D9D9"/>
<circle id="bola_227" cx="320" cy="20" r="20" fill="#D9D9D9"/>
<circle id="bola_228" cx="370" cy="20" r="20" fill="#D9D9D9"/>
<circle id="bola_229" cx="420" cy="20" r="20" fill="#D9D9D9"/>
<circle id="bola_230" cx="470" cy="20" r="20" fill="#D9D9D9"/>
<circle id="bola_231" cx="520" cy="20" r="20" fill="#D9D9D9"/>
<circle id="bola_232" cx="570" cy="20" r="20" fill="#D9D9D9"/>
<circle id="bola_233" cx="620" cy="20" r="20" fill="#D9D9D9"/>
<circle id="bola_234" cx="670" cy="20" r="20" fill="#D9D9D9"/>
<circle id="bola_235" cx="720" cy="20" r="20" fill="#D9D9D9"/>
<circle id="bola_236" cx="770" cy="20" r="20" fill="#D9D9D9"/>
<circle id="bola_237" cx="820" cy="20" r="20" fill="#D9D9D9"/>
<circle id="bola_238" cx="870" cy="20" r="20" fill="#D9D9D9"/>
<circle id="bola_239" cx="920" cy="20" r="20" fill="#D9D9D9"/>
<circle id="bola_240" cx="970" cy="20" r="20" fill="#D9D9D9"/>
</g>
</svg>
