<svg width="1920" height="1080" viewBox="0 0 1920 1080" fill="none" xmlns="http://www.w3.org/2000/svg">
<circle id="shot_hole" cx="1542.5" cy="887.5" r="27.5" fill="#515151"/>
<circle id="shot_hole_2" cx="1487.5" cy="887.5" r="27.5" fill="#515151"/>
<circle id="shot_hole_3" cx="1432.5" cy="887.5" r="27.5" fill="#515151"/>
<circle id="shot_hole_4" cx="1377.5" cy="887.5" r="27.5" fill="#515151"/>
<circle id="shot_hole_5" cx="1322.5" cy="887.5" r="27.5" fill="#515151"/>
<circle id="shot_hole_6" cx="1267.5" cy="887.5" r="27.5" fill="#515151"/>
<circle id="shot_hole_7" cx="1212.5" cy="887.5" r="27.5" fill="#515151"/>
<circle id="shot_hole_8" cx="1157.5" cy="887.5" r="27.5" fill="#515151"/>
<circle id="shot_hole_9" cx="1102.5" cy="887.5" r="27.5" fill="#515151"/>
<circle id="shot_hole_10" cx="1047.5" cy="887.5" r="27.5" fill="#515151"/>
<circle id="shot_hole_11" cx="992.5" cy="887.5" r="27.5" fill="#515151"/>
<circle id="shot_hole_12" cx="937.5" cy="887.5" r="27.5" fill="#515151"/>
<circle id="shot_hole_13" cx="882.5" cy="887.5" r="27.5" fill="#515151"/>
<circle id="shot_hole_14" cx="827.5" cy="887.5" r="27.5" fill="#515151"/>
<circle id="shot_hole_15" cx="772.5" cy="887.5" r="27.5" fill="#515151"/>
<circle id="shot_hole_16" cx="717.5" cy="887.5" r="27.5" fill="#515151"/>
<circle id="shot_hole_17" cx="662.5" cy="887.5" r="27.5" fill="#515151"/>
<circle id="shot_hole_18" cx="607.5" cy="887.5" r="27.5" fill="#515151"/>
<circle id="shot_hole_19" cx="552.5" cy="887.5" r="27.5" fill="#515151"/>
<circle id="shot_hole_20" cx="497.5" cy="887.5" r="27.5" fill="#515151"/>
<circle id="shot_hole_21" cx="442.5" cy="887.5" r="27.5" fill="#515151"/>
<circle id="shot_hole_22" cx="387.5" cy="887.5" r="27.5" fill="#515151"/>
<circle id="shot_hole_23" cx="1542.5" cy="832.5" r="27.5" fill="#515151"/>
<circle id="shot_hole_24" cx="1487.5" cy="832.5" r="27.5" fill="#515151"/>
<circle id="shot_hole_25" cx="1432.5" cy="832.5" r="27.5" fill="#515151"/>
<circle id="shot_hole_26" cx="1377.5" cy="832.5" r="27.5" fill="#515151"/>
<circle id="shot_hole_27" cx="1322.5" cy="832.5" r="27.5" fill="#515151"/>
<circle id="shot_hole_28" cx="1267.5" cy="832.5" r="27.5" fill="#515151"/>
<circle id="shot_hole_29" cx="1212.5" cy="832.5" r="27.5" fill="#515151"/>
<circle id="shot_hole_30" cx="1157.5" cy="832.5" r="27.5" fill="#515151"/>
<circle id="shot_hole_31" cx="1102.5" cy="832.5" r="27.5" fill="#515151"/>
<circle id="shot_hole_32" cx="1047.5" cy="832.5" r="27.5" fill="#515151"/>
<circle id="shot_hole_33" cx="992.5" cy="832.5" r="27.5" fill="#515151"/>
<circle id="shot_hole_34" cx="937.5" cy="832.5" r="27.5" fill="#515151"/>
<circle id="shot_hole_35" cx="882.5" cy="832.5" r="27.5" fill="#515151"/>
<circle id="shot_hole_36" cx="827.5" cy="832.5" r="27.5" fill="#515151"/>
<circle id="shot_hole_37" cx="772.5" cy="832.5" r="27.5" fill="#515151"/>
<circle id="shot_hole_38" cx="717.5" cy="832.5" r="27.5" fill="#515151"/>
<circle id="shot_hole_39" cx="662.5" cy="832.5" r="27.5" fill="#515151"/>
<circle id="shot_hole_40" cx="607.5" cy="832.5" r="27.5" fill="#515151"/>
<circle id="shot_hole_41" cx="552.5" cy="832.5" r="27.5" fill="#515151"/>
<circle id="shot_hole_42" cx="497.5" cy="832.5" r="27.5" fill="#515151"/>
<circle id="shot_hole_43" cx="442.5" cy="832.5" r="27.5" fill="#515151"/>
<circle id="shot_hole_44" cx="387.5" cy="832.5" r="27.5" fill="#515151"/>
<circle id="shot_hole_45" cx="1542.5" cy="777.5" r="27.5" fill="#515151"/>
<circle id="shot_hole_46" cx="1487.5" cy="777.5" r="27.5" fill="#515151"/>
<circle id="shot_hole_47" cx="1432.5" cy="777.5" r="27.5" fill="#515151"/>
<circle id="shot_hole_48" cx="1377.5" cy="777.5" r="27.5" fill="#515151"/>
<circle id="shot_hole_49" cx="1322.5" cy="777.5" r="27.5" fill="#515151"/>
<circle id="shot_hole_50" cx="1267.5" cy="777.5" r="27.5" fill="#515151"/>
<circle id="shot_hole_51" cx="1212.5" cy="777.5" r="27.5" fill="#515151"/>
<circle id="shot_hole_52" cx="1157.5" cy="777.5" r="27.5" fill="#515151"/>
<circle id="shot_hole_53" cx="1102.5" cy="777.5" r="27.5" fill="#515151"/>
<circle id="shot_hole_54" cx="1047.5" cy="777.5" r="27.5" fill="#515151"/>
<circle id="shot_hole_55" cx="992.5" cy="777.5" r="27.5" fill="#515151"/>
<circle id="shot_hole_56" cx="937.5" cy="777.5" r="27.5" fill="#515151"/>
<circle id="shot_hole_57" cx="882.5" cy="777.5" r="27.5" fill="#515151"/>
<circle id="shot_hole_58" cx="827.5" cy="777.5" r="27.5" fill="#515151"/>
<circle id="shot_hole_59" cx="772.5" cy="777.5" r="27.5" fill="#515151"/>
<circle id="shot_hole_60" cx="717.5" cy="777.5" r="27.5" fill="#515151"/>
<circle id="shot_hole_61" cx="662.5" cy="777.5" r="27.5" fill="#515151"/>
<circle id="shot_hole_62" cx="607.5" cy="777.5" r="27.5" fill="#515151"/>
<circle id="shot_hole_63" cx="552.5" cy="777.5" r="27.5" fill="#515151"/>
<circle id="shot_hole_64" cx="497.5" cy="777.5" r="27.5" fill="#515151"/>
<circle id="shot_hole_65" cx="442.5" cy="777.5" r="27.5" fill="#515151"/>
<circle id="shot_hole_66" cx="387.5" cy="777.5" r="27.5" fill="#515151"/>
<circle id="shot_hole_67" cx="1542.5" cy="722.5" r="27.5" fill="#515151"/>
<circle id="shot_hole_68" cx="1487.5" cy="722.5" r="27.5" fill="#515151"/>
<circle id="shot_hole_69" cx="1432.5" cy="722.5" r="27.5" fill="#515151"/>
<circle id="shot_hole_70" cx="1377.5" cy="722.5" r="27.5" fill="#515151"/>
<circle id="shot_hole_71" cx="1322.5" cy="722.5" r="27.5" fill="#515151"/>
<circle id="shot_hole_72" cx="1267.5" cy="722.5" r="27.5" fill="#515151"/>
<circle id="shot_hole_73" cx="1212.5" cy="722.5" r="27.5" fill="#515151"/>
<circle id="shot_hole_74" cx="1157.5" cy="722.5" r="27.5" fill="#515151"/>
<circle id="shot_hole_75" cx="1102.5" cy="722.5" r="27.5" fill="#515151"/>
<circle id="shot_hole_76" cx="1047.5" cy="722.5" r="27.5" fill="#515151"/>
<circle id="shot_hole_77" cx="992.5" cy="722.5" r="27.5" fill="#515151"/>
<circle id="shot_hole_78" cx="937.5" cy="722.5" r="27.5" fill="#515151"/>
<circle id="shot_hole_79" cx="882.5" cy="722.5" r="27.5" fill="#515151"/>
<circle id="shot_hole_80" cx="827.5" cy="722.5" r="27.5" fill="#515151"/>
<circle id="shot_hole_81" cx="772.5" cy="722.5" r="27.5" fill="#515151"/>
<circle id="shot_hole_82" cx="717.5" cy="722.5" r="27.5" fill="#515151"/>
<circle id="shot_hole_83" cx="662.5" cy="722.5" r="27.5" fill="#515151"/>
<circle id="shot_hole_84" cx="607.5" cy="722.5" r="27.5" fill="#515151"/>
<circle id="shot_hole_85" cx="552.5" cy="722.5" r="27.5" fill="#515151"/>
<circle id="shot_hole_86" cx="497.5" cy="722.5" r="27.5" fill="#515151"/>
<circle id="shot_hole_87" cx="442.5" cy="722.5" r="27.5" fill="#515151"/>
<circle id="shot_hole_88" cx="387.5" cy="722.5" r="27.5" fill="#515151"/>
<circle id="shot_hole_89" cx="1542.5" cy="667.5" r="27.5" fill="#515151"/>
<circle id="shot_hole_90" cx="1487.5" cy="667.5" r="27.5" fill="#515151"/>
<circle id="shot_hole_91" cx="1432.5" cy="667.5" r="27.5" fill="#515151"/>
<circle id="shot_hole_92" cx="1377.5" cy="667.5" r="27.5" fill="#515151"/>
<circle id="shot_hole_93" cx="1322.5" cy="667.5" r="27.5" fill="#515151"/>
<circle id="shot_hole_94" cx="1267.5" cy="667.5" r="27.5" fill="#515151"/>
<circle id="shot_hole_95" cx="1212.5" cy="667.5" r="27.5" fill="#515151"/>
<circle id="shot_hole_96" cx="1157.5" cy="667.5" r="27.5" fill="#515151"/>
<circle id="shot_hole_97" cx="1102.5" cy="667.5" r="27.5" fill="#515151"/>
<circle id="shot_hole_98" cx="1047.5" cy="667.5" r="27.5" fill="#515151"/>
<circle id="shot_hole_99" cx="992.5" cy="667.5" r="27.5" fill="#515151"/>
<circle id="shot_hole_100" cx="937.5" cy="667.5" r="27.5" fill="#515151"/>
<circle id="shot_hole_101" cx="882.5" cy="667.5" r="27.5" fill="#515151"/>
<circle id="shot_hole_102" cx="827.5" cy="667.5" r="27.5" fill="#515151"/>
<circle id="shot_hole_103" cx="772.5" cy="667.5" r="27.5" fill="#515151"/>
<circle id="shot_hole_104" cx="717.5" cy="667.5" r="27.5" fill="#515151"/>
<circle id="shot_hole_105" cx="662.5" cy="667.5" r="27.5" fill="#515151"/>
<circle id="shot_hole_106" cx="607.5" cy="667.5" r="27.5" fill="#515151"/>
<circle id="shot_hole_107" cx="552.5" cy="667.5" r="27.5" fill="#515151"/>
<circle id="shot_hole_108" cx="497.5" cy="667.5" r="27.5" fill="#515151"/>
<circle id="shot_hole_109" cx="442.5" cy="667.5" r="27.5" fill="#515151"/>
<circle id="shot_hole_110" cx="387.5" cy="667.5" r="27.5" fill="#515151"/>
<circle id="shot_hole_111" cx="1542.5" cy="612.5" r="27.5" fill="#515151"/>
<circle id="shot_hole_112" cx="1487.5" cy="612.5" r="27.5" fill="#515151"/>
<circle id="shot_hole_113" cx="1432.5" cy="612.5" r="27.5" fill="#515151"/>
<circle id="shot_hole_114" cx="1377.5" cy="612.5" r="27.5" fill="#515151"/>
<circle id="shot_hole_115" cx="1322.5" cy="612.5" r="27.5" fill="#515151"/>
<circle id="shot_hole_116" cx="1267.5" cy="612.5" r="27.5" fill="#515151"/>
<circle id="shot_hole_117" cx="1212.5" cy="612.5" r="27.5" fill="#515151"/>
<circle id="shot_hole_118" cx="1157.5" cy="612.5" r="27.5" fill="#515151"/>
<circle id="shot_hole_119" cx="1102.5" cy="612.5" r="27.5" fill="#515151"/>
<circle id="shot_hole_120" cx="1047.5" cy="612.5" r="27.5" fill="#515151"/>
<circle id="shot_hole_121" cx="992.5" cy="612.5" r="27.5" fill="#515151"/>
<circle id="shot_hole_122" cx="937.5" cy="612.5" r="27.5" fill="#515151"/>
<circle id="shot_hole_123" cx="882.5" cy="612.5" r="27.5" fill="#515151"/>
<circle id="shot_hole_124" cx="827.5" cy="612.5" r="27.5" fill="#515151"/>
<circle id="shot_hole_125" cx="772.5" cy="612.5" r="27.5" fill="#515151"/>
<circle id="shot_hole_126" cx="717.5" cy="612.5" r="27.5" fill="#515151"/>
<circle id="shot_hole_127" cx="662.5" cy="612.5" r="27.5" fill="#515151"/>
<circle id="shot_hole_128" cx="607.5" cy="612.5" r="27.5" fill="#515151"/>
<circle id="shot_hole_129" cx="552.5" cy="612.5" r="27.5" fill="#515151"/>
<circle id="shot_hole_130" cx="497.5" cy="612.5" r="27.5" fill="#515151"/>
<circle id="shot_hole_131" cx="442.5" cy="612.5" r="27.5" fill="#515151"/>
<circle id="shot_hole_132" cx="387.5" cy="612.5" r="27.5" fill="#515151"/>
<circle id="shot_hole_133" cx="1542.5" cy="557.5" r="27.5" fill="#515151"/>
<circle id="shot_hole_134" cx="1487.5" cy="557.5" r="27.5" fill="#515151"/>
<circle id="shot_hole_135" cx="1432.5" cy="557.5" r="27.5" fill="#515151"/>
<circle id="shot_hole_136" cx="1377.5" cy="557.5" r="27.5" fill="#515151"/>
<circle id="shot_hole_137" cx="1322.5" cy="557.5" r="27.5" fill="#515151"/>
<circle id="shot_hole_138" cx="1267.5" cy="557.5" r="27.5" fill="#515151"/>
<circle id="shot_hole_139" cx="1212.5" cy="557.5" r="27.5" fill="#515151"/>
<circle id="shot_hole_140" cx="1157.5" cy="557.5" r="27.5" fill="#515151"/>
<circle id="shot_hole_141" cx="1102.5" cy="557.5" r="27.5" fill="#515151"/>
<circle id="shot_hole_142" cx="1047.5" cy="557.5" r="27.5" fill="#515151"/>
<circle id="shot_hole_143" cx="992.5" cy="557.5" r="27.5" fill="#515151"/>
<circle id="shot_hole_144" cx="937.5" cy="557.5" r="27.5" fill="#515151"/>
<circle id="shot_hole_145" cx="882.5" cy="557.5" r="27.5" fill="#515151"/>
<circle id="shot_hole_146" cx="827.5" cy="557.5" r="27.5" fill="#515151"/>
<circle id="shot_hole_147" cx="772.5" cy="557.5" r="27.5" fill="#515151"/>
<circle id="shot_hole_148" cx="717.5" cy="557.5" r="27.5" fill="#515151"/>
<circle id="shot_hole_149" cx="662.5" cy="557.5" r="27.5" fill="#515151"/>
<circle id="shot_hole_150" cx="607.5" cy="557.5" r="27.5" fill="#515151"/>
<circle id="shot_hole_151" cx="552.5" cy="557.5" r="27.5" fill="#515151"/>
<circle id="shot_hole_152" cx="497.5" cy="557.5" r="27.5" fill="#515151"/>
<circle id="shot_hole_153" cx="442.5" cy="557.5" r="27.5" fill="#515151"/>
<circle id="shot_hole_154" cx="387.5" cy="557.5" r="27.5" fill="#515151"/>
<circle id="shot_hole_155" cx="1542.5" cy="502.5" r="27.5" fill="#515151"/>
<circle id="shot_hole_156" cx="1487.5" cy="502.5" r="27.5" fill="#515151"/>
<circle id="shot_hole_157" cx="1432.5" cy="502.5" r="27.5" fill="#515151"/>
<circle id="shot_hole_158" cx="1377.5" cy="502.5" r="27.5" fill="#515151"/>
<circle id="shot_hole_159" cx="1322.5" cy="502.5" r="27.5" fill="#515151"/>
<circle id="shot_hole_160" cx="1267.5" cy="502.5" r="27.5" fill="#515151"/>
<circle id="shot_hole_161" cx="1212.5" cy="502.5" r="27.5" fill="#515151"/>
<circle id="shot_hole_162" cx="1157.5" cy="502.5" r="27.5" fill="#515151"/>
<circle id="shot_hole_163" cx="1102.5" cy="502.5" r="27.5" fill="#515151"/>
<circle id="shot_hole_164" cx="1047.5" cy="502.5" r="27.5" fill="#515151"/>
<circle id="shot_hole_165" cx="992.5" cy="502.5" r="27.5" fill="#515151"/>
<circle id="shot_hole_166" cx="937.5" cy="502.5" r="27.5" fill="#515151"/>
<circle id="shot_hole_167" cx="882.5" cy="502.5" r="27.5" fill="#515151"/>
<circle id="shot_hole_168" cx="827.5" cy="502.5" r="27.5" fill="#515151"/>
<circle id="shot_hole_169" cx="772.5" cy="502.5" r="27.5" fill="#515151"/>
<circle id="shot_hole_170" cx="717.5" cy="502.5" r="27.5" fill="#515151"/>
<circle id="shot_hole_171" cx="662.5" cy="502.5" r="27.5" fill="#515151"/>
<circle id="shot_hole_172" cx="607.5" cy="502.5" r="27.5" fill="#515151"/>
<circle id="shot_hole_173" cx="552.5" cy="502.5" r="27.5" fill="#515151"/>
<circle id="shot_hole_174" cx="497.5" cy="502.5" r="27.5" fill="#515151"/>
<circle id="shot_hole_175" cx="442.5" cy="502.5" r="27.5" fill="#515151"/>
<circle id="shot_hole_176" cx="387.5" cy="502.5" r="27.5" fill="#515151"/>
<circle id="shot_hole_177" cx="1542.5" cy="447.5" r="27.5" fill="#515151"/>
<circle id="shot_hole_178" cx="1487.5" cy="447.5" r="27.5" fill="#515151"/>
<circle id="shot_hole_179" cx="1432.5" cy="447.5" r="27.5" fill="#515151"/>
<circle id="shot_hole_180" cx="1377.5" cy="447.5" r="27.5" fill="#515151"/>
<circle id="shot_hole_181" cx="1322.5" cy="447.5" r="27.5" fill="#515151"/>
<circle id="shot_hole_182" cx="1267.5" cy="447.5" r="27.5" fill="#515151"/>
<circle id="shot_hole_183" cx="1212.5" cy="447.5" r="27.5" fill="#515151"/>
<circle id="shot_hole_184" cx="1157.5" cy="447.5" r="27.5" fill="#515151"/>
<circle id="shot_hole_185" cx="1102.5" cy="447.5" r="27.5" fill="#515151"/>
<circle id="shot_hole_186" cx="1047.5" cy="447.5" r="27.5" fill="#515151"/>
<circle id="shot_hole_187" cx="992.5" cy="447.5" r="27.5" fill="#515151"/>
<circle id="shot_hole_188" cx="937.5" cy="447.5" r="27.5" fill="#515151"/>
<circle id="shot_hole_189" cx="882.5" cy="447.5" r="27.5" fill="#515151"/>
<circle id="shot_hole_190" cx="827.5" cy="447.5" r="27.5" fill="#515151"/>
<circle id="shot_hole_191" cx="772.5" cy="447.5" r="27.5" fill="#515151"/>
<circle id="shot_hole_192" cx="717.5" cy="447.5" r="27.5" fill="#515151"/>
<circle id="shot_hole_193" cx="662.5" cy="447.5" r="27.5" fill="#515151"/>
<circle id="shot_hole_194" cx="607.5" cy="447.5" r="27.5" fill="#515151"/>
<circle id="shot_hole_195" cx="552.5" cy="447.5" r="27.5" fill="#515151"/>
<circle id="shot_hole_196" cx="497.5" cy="447.5" r="27.5" fill="#515151"/>
<circle id="shot_hole_197" cx="442.5" cy="447.5" r="27.5" fill="#515151"/>
<circle id="shot_hole_198" cx="387.5" cy="447.5" r="27.5" fill="#515151"/>
<circle id="shot_hole_199" cx="1542.5" cy="392.5" r="27.5" fill="#515151"/>
<circle id="shot_hole_200" cx="1487.5" cy="392.5" r="27.5" fill="#515151"/>
<circle id="shot_hole_201" cx="1432.5" cy="392.5" r="27.5" fill="#515151"/>
<circle id="shot_hole_202" cx="1377.5" cy="392.5" r="27.5" fill="#515151"/>
<circle id="shot_hole_203" cx="1322.5" cy="392.5" r="27.5" fill="#515151"/>
<circle id="shot_hole_204" cx="1267.5" cy="392.5" r="27.5" fill="#515151"/>
<circle id="shot_hole_205" cx="1212.5" cy="392.5" r="27.5" fill="#515151"/>
<circle id="shot_hole_206" cx="1157.5" cy="392.5" r="27.5" fill="#515151"/>
<circle id="shot_hole_207" cx="1102.5" cy="392.5" r="27.5" fill="#515151"/>
<circle id="shot_hole_208" cx="1047.5" cy="392.5" r="27.5" fill="#515151"/>
<circle id="shot_hole_209" cx="992.5" cy="392.5" r="27.5" fill="#515151"/>
<circle id="shot_hole_210" cx="937.5" cy="392.5" r="27.5" fill="#515151"/>
<circle id="shot_hole_211" cx="882.5" cy="392.5" r="27.5" fill="#515151"/>
<circle id="shot_hole_212" cx="827.5" cy="392.5" r="27.5" fill="#515151"/>
<circle id="shot_hole_213" cx="772.5" cy="392.5" r="27.5" fill="#515151"/>
<circle id="shot_hole_214" cx="717.5" cy="392.5" r="27.5" fill="#515151"/>
<circle id="shot_hole_215" cx="662.5" cy="392.5" r="27.5" fill="#515151"/>
<circle id="shot_hole_216" cx="607.5" cy="392.5" r="27.5" fill="#515151"/>
<circle id="shot_hole_217" cx="552.5" cy="392.5" r="27.5" fill="#515151"/>
<circle id="shot_hole_218" cx="497.5" cy="392.5" r="27.5" fill="#515151"/>
<circle id="shot_hole_219" cx="442.5" cy="392.5" r="27.5" fill="#515151"/>
<circle id="shot_hole_220" cx="387.5" cy="392.5" r="27.5" fill="#515151"/>
<circle id="shot_hole_221" cx="1542.5" cy="337.5" r="27.5" fill="#515151"/>
<circle id="shot_hole_222" cx="1487.5" cy="337.5" r="27.5" fill="#515151"/>
<circle id="shot_hole_223" cx="1432.5" cy="337.5" r="27.5" fill="#515151"/>
<circle id="shot_hole_224" cx="1377.5" cy="337.5" r="27.5" fill="#515151"/>
<circle id="shot_hole_225" cx="1322.5" cy="337.5" r="27.5" fill="#515151"/>
<circle id="shot_hole_226" cx="1267.5" cy="337.5" r="27.5" fill="#515151"/>
<circle id="shot_hole_227" cx="1212.5" cy="337.5" r="27.5" fill="#515151"/>
<circle id="shot_hole_228" cx="1157.5" cy="337.5" r="27.5" fill="#515151"/>
<circle id="shot_hole_229" cx="1102.5" cy="337.5" r="27.5" fill="#515151"/>
<circle id="shot_hole_230" cx="1047.5" cy="337.5" r="27.5" fill="#515151"/>
<circle id="shot_hole_231" cx="992.5" cy="337.5" r="27.5" fill="#515151"/>
<circle id="shot_hole_232" cx="937.5" cy="337.5" r="27.5" fill="#515151"/>
<circle id="shot_hole_233" cx="882.5" cy="337.5" r="27.5" fill="#515151"/>
<circle id="shot_hole_234" cx="827.5" cy="337.5" r="27.5" fill="#515151"/>
<circle id="shot_hole_235" cx="772.5" cy="337.5" r="27.5" fill="#515151"/>
<circle id="shot_hole_236" cx="717.5" cy="337.5" r="27.5" fill="#515151"/>
<circle id="shot_hole_237" cx="662.5" cy="337.5" r="27.5" fill="#515151"/>
<circle id="shot_hole_238" cx="607.5" cy="337.5" r="27.5" fill="#515151"/>
<circle id="shot_hole_239" cx="552.5" cy="337.5" r="27.5" fill="#515151"/>
<circle id="shot_hole_240" cx="497.5" cy="337.5" r="27.5" fill="#515151"/>
<circle id="shot_hole_241" cx="442.5" cy="337.5" r="27.5" fill="#515151"/>
<circle id="shot_hole_242" cx="387.5" cy="337.5" r="27.5" fill="#515151"/>
</svg>
